# xmcd CD database file
#
# Track frame offsets:
#	150
#	32855
#	61254
#	87325
#	101449
#	143679
#	173582
#	185879
#	211561
#	222644
#	239165
#
# Disc length: 3552 seconds
#
# Revision: 0
# Processed by: cddbd v1.5.2PL0 Copyright (c) Steve Scherf et al.
# Submitted via: CDex 1.70beta2
#
DISCID=9f0dde0b
DTITLE=Gary Peacock - Azure
DYEAR=2013
DGENRE=Jazz
TTITLE0=Patterns
TTITLE1=Goodbye
TTITLE2=Leapfrog
TTITLE3=Bass Solo
TTITLE4=Waltz After David M
TTITLE5=Lullabye
TTITLE6=The Lea
TTITLE7=Blue
TTITLE8=Piano Solo
TTITLE9=Puppets
TTITLE10=Azure
EXTD=YEAR: 2013
EXTT0=
EXTT1=
EXTT2=
EXTT3=
EXTT4=
EXTT5=
EXTT6=
EXTT7=
EXTT8=
EXTT9=
EXTT10=
PLAYORDER=
